<svg id="Layer_1" data-name="Layer 1" xmlns="http://www.w3.org/2000/svg" viewBox="0 0 338.93 338.93"><defs><style>.cls-1{fill:#5262ab;}.cls-2{fill:#283f80;}.cls-3{fill:#fff;}</style></defs><title>Logo Gabriela</title><circle class="cls-1" cx="169.46" cy="169.46" r="169.46"/><path class="cls-2" d="M184.37,205.67l-5.29.69a11.43,11.43,0,0,0-6.84,4.43,11.05,11.05,0,0,1-7.45,4.17,10.79,10.79,0,0,1-8.3-2.28,10.47,10.47,0,0,1-4.33-6.75,9.8,9.8,0,0,1,1.6-7.7q4.14-6.94,13.38-11a35.38,35.38,0,0,1,9.07-2.7l12.25-1.61a6,6,0,0,0,3.7-2.67q2.93-5.94,1.15-10.43l0-.16a34.6,34.6,0,0,1-7.14,4,43.67,43.67,0,0,1-11,2.63,42.85,42.85,0,0,1-16.54-.87,37.18,37.18,0,0,1-23.68-18.2,42.89,42.89,0,0,1-5.1-15.75,37.08,37.08,0,0,1,1.29-15.83,42.54,42.54,0,0,1,7.2-13.91,43.29,43.29,0,0,1,11.6-10.37,37.05,37.05,0,0,1,14.73-5.21,39.28,39.28,0,0,1,16,1.11,40.84,40.84,0,0,1,13.87,6.94,40,40,0,0,1,15.3,26.79,40.48,40.48,0,0,1-2.2,20.5q5.64,5.82,7.56,20.4a26.79,26.79,0,0,1-.7,10.79,30,30,0,0,1-4.69,10.46,28.73,28.73,0,0,1-8,7.53A30,30,0,0,1,191,204.8l-5.63.74Zm-16.92-88a16,16,0,0,0-6.75,2.48A21.19,21.19,0,0,0,152,131.43a16.12,16.12,0,0,0-.66,7.16,18.28,18.28,0,0,0,2.33,6.85,18.91,18.91,0,0,0,4.67,5.45,19.52,19.52,0,0,0,6.42,3.37,17.62,17.62,0,0,0,7.58.61,18.86,18.86,0,0,0,7.25-2.47,17.56,17.56,0,0,0,5.42-4.92,20.26,20.26,0,0,0,3.11-6.47,18,18,0,0,0,.47-7.3,17.13,17.13,0,0,0-2.51-7,19.74,19.74,0,0,0-4.91-5.33,20.45,20.45,0,0,0-6.48-3.2A17.56,17.56,0,0,0,167.45,117.62Z" transform="translate(-33.85 -30.63)"/><path class="cls-2" d="M143.47,200.73l5.29-.69a11.4,11.4,0,0,0,6.83-4.44,11.17,11.17,0,0,1,7.45-4.17,10.89,10.89,0,0,1,8.31,2.28,10.55,10.55,0,0,1,4.33,6.76,9.84,9.84,0,0,1-1.6,7.7q-4.14,6.95-13.38,11a35.5,35.5,0,0,1-9.07,2.7l-12.25,1.61a6,6,0,0,0-3.7,2.67q-2.93,5.94-1.16,10.42l0,.17a34.8,34.8,0,0,1,7.14-4,43.56,43.56,0,0,1,11-2.63,43.06,43.06,0,0,1,16.54.87,37.18,37.18,0,0,1,23.68,18.2A43.08,43.08,0,0,1,198,265a37.09,37.09,0,0,1-1.3,15.83,42.42,42.42,0,0,1-7.19,13.91,43.18,43.18,0,0,1-11.61,10.37,37,37,0,0,1-14.72,5.21,39.25,39.25,0,0,1-16-1.11,41,41,0,0,1-13.88-6.94,40.08,40.08,0,0,1-15.29-26.79,40.37,40.37,0,0,1,2.2-20.5q-5.66-5.82-7.56-20.4a26.72,26.72,0,0,1,.69-10.78,30,30,0,0,1,4.7-10.47,28.91,28.91,0,0,1,8-7.54,30,30,0,0,1,10.73-4.18l5.63-.74Zm16.92,88a16.14,16.14,0,0,0,6.75-2.48,21,21,0,0,0,5.33-4.91,21.21,21.21,0,0,0,3.37-6.42,16.12,16.12,0,0,0,.66-7.16,18.37,18.37,0,0,0-2.32-6.86,18.9,18.9,0,0,0-4.68-5.44,19.63,19.63,0,0,0-6.42-3.38,17.56,17.56,0,0,0-7.57-.6,18.91,18.91,0,0,0-7.26,2.47,17.79,17.79,0,0,0-5.42,4.92,20.34,20.34,0,0,0-3.1,6.47,18.16,18.16,0,0,0-.48,7.3,17,17,0,0,0,2.52,7,19.59,19.59,0,0,0,4.91,5.33,20.34,20.34,0,0,0,6.48,3.2A17.54,17.54,0,0,0,160.39,288.78Z" transform="translate(-33.85 -30.63)"/><path class="cls-3" d="M172.11,199.59l-5.29.69a11.43,11.43,0,0,0-6.83,4.43,11.19,11.19,0,0,1-7.45,4.18,10.82,10.82,0,0,1-8.3-2.29,10.51,10.51,0,0,1-4.34-6.75,9.88,9.88,0,0,1,1.6-7.7q4.14-6.94,13.38-11a35.46,35.46,0,0,1,9.08-2.7l12.25-1.61a6,6,0,0,0,3.69-2.67q2.92-5.94,1.16-10.43l0-.16a34.54,34.54,0,0,1-7.14,4,44,44,0,0,1-11,2.63,43.06,43.06,0,0,1-16.54-.87,37.25,37.25,0,0,1-23.68-18.2,43.08,43.08,0,0,1-5.1-15.75,37.14,37.14,0,0,1,1.3-15.84A42.52,42.52,0,0,1,126,105.58a43.46,43.46,0,0,1,11.61-10.36A36.8,36.8,0,0,1,152.37,90a39.27,39.27,0,0,1,16,1.11,40.84,40.84,0,0,1,13.87,6.94,40,40,0,0,1,15.3,26.79,40.37,40.37,0,0,1-2.2,20.5q5.66,5.82,7.56,20.4a26.91,26.91,0,0,1-.69,10.78A30.27,30.27,0,0,1,197.5,187a28.77,28.77,0,0,1-8,7.53,30,30,0,0,1-10.73,4.19l-5.63.74Zm-16.92-88.06a16.16,16.16,0,0,0-6.75,2.49,21.24,21.24,0,0,0-8.7,11.33,16.11,16.11,0,0,0-.66,7.16,18.28,18.28,0,0,0,2.33,6.85,18.91,18.91,0,0,0,4.67,5.45,19.52,19.52,0,0,0,6.42,3.37,17.42,17.42,0,0,0,7.57.61,18.91,18.91,0,0,0,7.26-2.47,17.8,17.8,0,0,0,5.42-4.92,20.47,20.47,0,0,0,3.11-6.47,18.35,18.35,0,0,0,.47-7.3,17.27,17.27,0,0,0-2.51-7,19.91,19.91,0,0,0-4.91-5.33,20.55,20.55,0,0,0-6.48-3.2A17.61,17.61,0,0,0,155.19,111.53Z" transform="translate(-33.85 -30.63)"/><path class="cls-3" d="M131.22,194.65l5.29-.69a11.46,11.46,0,0,0,6.84-4.43,11.1,11.1,0,0,1,7.44-4.18,10.88,10.88,0,0,1,8.3,2.28,10.53,10.53,0,0,1,4.34,6.76,9.87,9.87,0,0,1-1.6,7.71q-4.14,6.93-13.38,11a35.38,35.38,0,0,1-9.07,2.7l-12.26,1.61a6,6,0,0,0-3.69,2.67q-2.93,5.94-1.16,10.43l0,.16a34.56,34.56,0,0,1,7.14-4,44,44,0,0,1,11-2.62A43.26,43.26,0,0,1,157,225a37.18,37.18,0,0,1,23.68,18.2,43.08,43.08,0,0,1,5.1,15.75,37,37,0,0,1-1.3,15.84,42.48,42.48,0,0,1-7.19,13.9A43.29,43.29,0,0,1,165.69,299,37.05,37.05,0,0,1,151,304.23a39.27,39.27,0,0,1-16-1.11,40.84,40.84,0,0,1-13.87-6.94,39.76,39.76,0,0,1-10.2-11.63,42.68,42.68,0,0,1-2.9-35.66q-5.66-5.82-7.56-20.4a26.72,26.72,0,0,1,.69-10.78,30.18,30.18,0,0,1,4.69-10.47,28.9,28.9,0,0,1,8-7.53,30,30,0,0,1,10.73-4.19l5.63-.74Zm16.92,88.06a16.29,16.29,0,0,0,6.75-2.49,21.24,21.24,0,0,0,8.7-11.33,16.11,16.11,0,0,0,.66-7.16,18.1,18.1,0,0,0-2.33-6.85,18.87,18.87,0,0,0-4.66-5.45,19.47,19.47,0,0,0-6.43-3.37,17.58,17.58,0,0,0-7.57-.61,18.8,18.8,0,0,0-7.25,2.47,17.71,17.71,0,0,0-5.43,4.92,20.45,20.45,0,0,0-3.1,6.47,18.17,18.17,0,0,0-.48,7.3,17.29,17.29,0,0,0,2.52,7,19.71,19.71,0,0,0,4.9,5.33,20.29,20.29,0,0,0,6.49,3.2A17.73,17.73,0,0,0,148.14,282.71Z" transform="translate(-33.85 -30.63)"/><path class="cls-3" d="M203.4,204.67h7.08v3.68h.46a10.07,10.07,0,0,1,3.6-3.34,10.22,10.22,0,0,1,5-1.26,9.34,9.34,0,0,1,5.41,1.5,8.36,8.36,0,0,1,3.11,3.68,11.47,11.47,0,0,1,3.74-3.65,10.76,10.76,0,0,1,5.87-1.53,11.21,11.21,0,0,1,4.49.83,8.41,8.41,0,0,1,3.14,2.34,10.13,10.13,0,0,1,1.87,3.59,15.9,15.9,0,0,1,.63,4.58v17.79H240.3V216.47q0-5.76-4.72-5.76a5.24,5.24,0,0,0-2.65.67,6,6,0,0,0-1.93,1.78,8.8,8.8,0,0,0-1.2,2.68,12.32,12.32,0,0,0-.44,3.34v13.7h-7.54V216.47q0-5.76-4.95-5.76a4.8,4.8,0,0,0-2.53.67,5.78,5.78,0,0,0-1.84,1.78,8.51,8.51,0,0,0-1.15,2.68,13.17,13.17,0,0,0-.41,3.34v13.7H203.4Z" transform="translate(-33.85 -30.63)"/><path class="cls-3" d="M280.77,226.08a15.78,15.78,0,0,1-5.27,5.59,14.64,14.64,0,0,1-8.09,2.13,15.46,15.46,0,0,1-6-1.13,14.14,14.14,0,0,1-4.75-3.13,14.37,14.37,0,0,1-3.14-4.75,15.66,15.66,0,0,1-1.12-6,15.39,15.39,0,0,1,1.09-5.78,14.56,14.56,0,0,1,7.69-8,14,14,0,0,1,5.89-1.21,15.36,15.36,0,0,1,6.05,1.12A12.36,12.36,0,0,1,277.6,208a13.55,13.55,0,0,1,2.71,4.69,18.2,18.2,0,0,1,.92,5.87v.69a3.72,3.72,0,0,0-.06.64,3.06,3.06,0,0,0-.06.63H259.87a7.82,7.82,0,0,0,.95,3,7.23,7.23,0,0,0,1.79,2.08,6.8,6.8,0,0,0,2.33,1.2,8.69,8.69,0,0,0,2.59.38,7.41,7.41,0,0,0,4.29-1.18,8.63,8.63,0,0,0,2.67-3Zm-6.85-10.93a4.84,4.84,0,0,0-.49-1.67,5.84,5.84,0,0,0-1.27-1.73,6.45,6.45,0,0,0-2.07-1.32,7.55,7.55,0,0,0-3-.52,6.87,6.87,0,0,0-4.25,1.38,7.24,7.24,0,0,0-2.59,3.86Z" transform="translate(-33.85 -30.63)"/><path class="cls-3" d="M293.14,208.35h.46a9.69,9.69,0,0,1,3.57-3.36,10.39,10.39,0,0,1,5.13-1.24,11.88,11.88,0,0,1,4.66.86,8.62,8.62,0,0,1,3.31,2.45,10.85,10.85,0,0,1,2,3.8,17.22,17.22,0,0,1,.67,4.92v17.1h-7.55V216.7a6.51,6.51,0,0,0-1.35-4.52,5.08,5.08,0,0,0-3.94-1.47,5.47,5.47,0,0,0-2.73.67,6.35,6.35,0,0,0-2,1.78,7.84,7.84,0,0,0-1.26,2.65,11.81,11.81,0,0,0-.44,3.25v13.82h-7.54V204.67h7.08Z" transform="translate(-33.85 -30.63)"/><path class="cls-3" d="M222.32,271.46h-.42a7.84,7.84,0,0,1-2.94,2.78,9.75,9.75,0,0,1-5,1.16,11.2,11.2,0,0,1-4.7-1,12.76,12.76,0,0,1-3.95-2.84,13.53,13.53,0,0,1-2.71-4.35,15.74,15.74,0,0,1,0-11,13.48,13.48,0,0,1,2.71-4.34,12.44,12.44,0,0,1,3.95-2.84,11.06,11.06,0,0,1,4.7-1,9.75,9.75,0,0,1,5,1.16,7.78,7.78,0,0,1,2.94,2.79h.42l-.42-3.69V236.89h6.9v37.67h-6.48ZM215.44,269a7,7,0,0,0,2.6-.5,6.5,6.5,0,0,0,2.18-1.45,7.28,7.28,0,0,0,1.53-2.31,8.06,8.06,0,0,0,.57-3.11,8,8,0,0,0-.57-3.1,7.44,7.44,0,0,0-1.53-2.32,6.48,6.48,0,0,0-2.18-1.44,6.76,6.76,0,0,0-2.6-.5,6.61,6.61,0,0,0-2.61.52,6.9,6.9,0,0,0-2.18,1.48,7.28,7.28,0,0,0-1.53,2.31,8.31,8.31,0,0,0,0,6.1,7.32,7.32,0,0,0,1.53,2.32,6.87,6.87,0,0,0,2.18,1.47A6.62,6.62,0,0,0,215.44,269Z" transform="translate(-33.85 -30.63)"/><path class="cls-3" d="M246.63,247.94a14.25,14.25,0,0,1,5.5,1,13,13,0,0,1,4.31,2.84,12.82,12.82,0,0,1,2.84,4.34,15.31,15.31,0,0,1,0,11,12.87,12.87,0,0,1-2.84,4.35,13.31,13.31,0,0,1-4.31,2.84,15.34,15.34,0,0,1-11,0,13.31,13.31,0,0,1-4.31-2.84,12.87,12.87,0,0,1-2.84-4.35,15.31,15.31,0,0,1,0-11,12.82,12.82,0,0,1,2.84-4.34,13,13,0,0,1,4.31-2.84A14.25,14.25,0,0,1,246.63,247.94Zm0,21.1a6.81,6.81,0,0,0,2.55-.5,6.54,6.54,0,0,0,2.19-1.45,6.87,6.87,0,0,0,1.49-2.31,8.25,8.25,0,0,0,.56-3.11,8.16,8.16,0,0,0-.56-3.1,7,7,0,0,0-1.49-2.32,6.52,6.52,0,0,0-2.19-1.44,6.83,6.83,0,0,0-5.13,0,6.7,6.7,0,0,0-2.16,1.44,7,7,0,0,0-1.49,2.32,8.16,8.16,0,0,0-.56,3.1,8.25,8.25,0,0,0,.56,3.11,6.87,6.87,0,0,0,1.49,2.31,6.58,6.58,0,0,0,4.74,2Z" transform="translate(-33.85 -30.63)"/><path class="cls-3" d="M262.94,268.88l13.15-14.2H263.36v-5.9h21.2v5.68l-13.15,14.21h13.36v5.89H262.94Z" transform="translate(-33.85 -30.63)"/><path class="cls-3" d="M304.75,271.82h-.42a11.34,11.34,0,0,1-2.92,2.53,8.27,8.27,0,0,1-4.39,1,10.66,10.66,0,0,1-3.76-.66,9.75,9.75,0,0,1-3.08-1.81,8.15,8.15,0,0,1-2.05-2.79,8.62,8.62,0,0,1-.73-3.58,8,8,0,0,1,.79-3.6,8.15,8.15,0,0,1,2.2-2.76,10,10,0,0,1,3.34-1.76,13.73,13.73,0,0,1,4.19-.61,17.69,17.69,0,0,1,4.15.4,19.63,19.63,0,0,1,2.68.81v-.79a4.2,4.2,0,0,0-1.63-3.39,6.15,6.15,0,0,0-4-1.34,7.58,7.58,0,0,0-6.06,3l-5-3.42a13.53,13.53,0,0,1,11.2-5.16q6,0,9.16,2.82t3.15,8.33v15.47h-6.79Zm0-7.73a14.89,14.89,0,0,0-2.49-.92,10.9,10.9,0,0,0-2.82-.34,5.92,5.92,0,0,0-3.81,1.08,3.26,3.26,0,0,0-1.34,2.65,3,3,0,0,0,1.29,2.53,4.85,4.85,0,0,0,3,.94,6.33,6.33,0,0,0,2.52-.49,6.14,6.14,0,0,0,2-1.32,5.67,5.67,0,0,0,1.27-1.89A5.74,5.74,0,0,0,304.75,264.09Z" transform="translate(-33.85 -30.63)"/></svg>